<svg role="img" fill="currentColor" xmlns="http://www.w3.org/2000/svg" viewBox="0 0 160.7 26.9">
  <desc>SteelSeries</desc>
  <path d="M28.3,7.5v3.3h-3.6v9c-0.1,0.6,0.1,1.2,0.4,1.7c0.5,0.3,1.1,0.5,1.7,0.4h0.8c0.2,0,0.5-0.1,0.7-0.1v3.8c-0.5,0.1-0.9,0.1-1.4,0.1h-1.5c-0.7,0-1.5-0.1-2.2-0.2c-0.6-0.1-1.3-0.3-1.8-0.6c-0.5-0.3-1-0.7-1.2-1.3c-0.3-0.7-0.5-1.4-0.5-2.2V10.7h-3V7.5h3V2.1h5v5.4H28.3z"></path>
  <path d="M34.5,21.2c1.7,1.3,4,1.4,5.8,0.3c0.6-0.4,1.1-0.9,1.3-1.6H46c-0.5,1.9-1.6,3.5-3.2,4.7c-1.6,1-3.4,1.4-5.2,1.4c-1.3,0-2.6-0.2-3.9-0.7c-1.1-0.4-2.1-1.1-2.9-1.9c-0.8-0.9-1.4-1.9-1.8-3c-0.4-1.2-0.7-2.5-0.6-3.9c0-1.3,0.2-2.6,0.7-3.8c0.8-2.3,2.6-4.1,4.8-5C35,7.2,36.3,7,37.6,7c1.4,0,2.8,0.3,4,0.9c1.1,0.6,2.1,1.4,2.8,2.4c0.8,1,1.3,2.2,1.6,3.5c0.3,1.3,0.4,2.7,0.3,4h-13C33.3,19,33.7,20.2,34.5,21.2z M40.1,11.7c-0.7-0.7-1.7-1.1-2.7-1c-0.7,0-1.4,0.1-2,0.4c-0.9,0.4-1.6,1.3-1.9,2.3c-0.1,0.4-0.2,0.8-0.2,1.2h8.1C41.2,13.6,40.8,12.6,40.1,11.7z"></path>
  <path d="M53.7,21.2c1.7,1.3,4,1.4,5.8,0.3c0.6-0.4,1.1-0.9,1.3-1.6h4.4c-0.5,1.9-1.6,3.5-3.2,4.7c-1.6,1-3.4,1.5-5.2,1.4c-1.3,0-2.6-0.2-3.9-0.7c-1.1-0.4-2.1-1.1-2.9-1.9c-0.8-0.9-1.4-1.9-1.8-3c-0.4-1.2-0.6-2.5-0.6-3.9c0-1.3,0.2-2.6,0.7-3.8c0.8-2.3,2.6-4.1,4.8-5C54.2,7.2,55.5,7,56.8,7c1.4,0,2.8,0.3,4,0.9c1.1,0.6,2.1,1.4,2.8,2.4c0.8,1,1.3,2.2,1.6,3.5c0.3,1.3,0.5,2.7,0.4,4h-13C52.5,19,52.9,20.2,53.7,21.2z M59.3,11.7c-0.7-0.7-1.7-1.1-2.7-1c-0.7,0-1.4,0.1-2,0.4c-0.9,0.4-1.6,1.3-1.9,2.3c-0.1,0.4-0.2,0.8-0.2,1.2h8.1C60.4,13.6,60,12.6,59.3,11.7z"></path>
  <path d="M71.8,2v23.6h-5V2H71.8z"></path>
  <path d="M101.5,22.1c-0.8,0.5-1.8,0.8-2.8,0.8c-0.7,0-1.5-0.1-2.2-0.4c-0.6-0.3-1.1-0.7-1.5-1.2c-0.4-0.5-0.7-1.1-0.9-1.7c-0.2-0.6-0.3-1.3-0.3-2h13.3c0.2-1.3,0.1-2.6-0.3-3.9c-0.3-1.2-0.9-2.4-1.6-3.4c-0.8-1-1.7-1.8-2.8-2.4C101.2,7.3,99.9,7,98.6,7c-2.4,0-4.8,1-6.4,2.9c-0.8,0.9-1.4,1.9-1.8,3c-0.4,1.2-0.6,2.4-0.6,3.7c0,1.3,0.2,2.6,0.6,3.9c0.4,1.1,0.9,2.1,1.7,3c0.8,0.9,1.7,1.5,2.8,2c1.2,0.5,2.5,0.7,3.8,0.7c1,0,1.9-0.1,2.8-0.4c0.9-0.3,1.7-0.7,2.4-1.2c1.5-1.1,2.5-2.7,2.9-4.5h-3.8C102.8,20.8,102.3,21.6,101.5,22.1z M94.3,13c0.2-0.6,0.6-1.1,1-1.5c0.4-0.4,0.9-0.8,1.5-1c0.6-0.3,1.2-0.4,1.8-0.4c0.6,0,1.3,0.1,1.8,0.4c0.5,0.2,1,0.6,1.4,1c0.4,0.4,0.7,1,0.9,1.5c0.2,0.6,0.4,1.2,0.4,1.8h-9.3C93.9,14.2,94,13.6,94.3,13z"></path>
  <path d="M124.9,2.7c0,1.1-0.9,2-2,2c-1.1,0-2-0.9-2-2s0.9-2,2-2C124,0.7,124.9,1.6,124.9,2.7"></path>
  <path d="M120.9,7.5h4v18.1h-4V7.5z"></path>
  <path d="M88.6,17.9c-0.3-0.6-0.8-1.1-1.3-1.5c-0.6-0.4-1.2-0.7-1.9-0.9c-0.7-0.2-1.4-0.4-2.1-0.6l-2.2-0.4c-0.6-0.1-1.3-0.3-1.9-0.5c-0.5-0.2-0.9-0.4-1.3-0.8c-0.3-0.3-0.5-0.7-0.5-1.2c0-0.4,0.1-0.7,0.3-1c0.2-0.2,0.5-0.4,0.9-0.5c0.3-0.1,0.7-0.2,1.1-0.3c0.3,0,0.7-0.1,1-0.1c0.8,0,1.6,0.2,2.3,0.5c0.7,0.4,1.2,1.1,1.3,1.9h4.2c-0.1-0.9-0.4-1.8-0.9-2.6c-0.4-0.7-1-1.3-1.7-1.7c-0.7-0.5-1.5-0.8-2.3-1c-0.9-0.2-1.8-0.3-2.7-0.3c-0.9,0-1.7,0.1-2.6,0.2c-0.9,0.1-1.7,0.4-2.5,0.9c-0.7,0.4-1.3,0.9-1.8,1.6c-0.5,0.7-0.8,1.6-0.7,2.5c0,0.8,0.1,1.6,0.5,2.3c0.3,0.6,0.8,1.1,1.3,1.5c0.6,0.4,1.2,0.7,1.8,0.9c0.7,0.2,1.4,0.4,2.2,0.6l2.1,0.5c0.6,0.1,1.3,0.3,1.9,0.5c0.5,0.2,1,0.4,1.4,0.8c0.3,0.3,0.5,0.8,0.5,1.3c0.1,0.5-0.1,0.9-0.3,1.3c-0.3,0.3-0.6,0.6-1,0.7c-0.4,0.2-0.9,0.3-1.4,0.3c-0.4,0-0.9,0.1-1.3,0.1c-1,0-1.9-0.2-2.8-0.7c-0.7-0.5-1.2-1.3-1.2-2.3h-4c0,0.9,0.2,1.8,0.6,2.6c0.4,0.8,1,1.5,1.7,2c0.8,0.5,1.6,0.9,2.5,1.2c1,0.3,2.1,0.4,3.2,0.4c0.9,0,1.9-0.1,2.8-0.3c0.9-0.2,1.8-0.5,2.6-1c0.8-0.4,1.4-1.1,1.9-1.8c0.5-0.8,0.7-1.8,0.7-2.8C89.1,19.4,88.9,18.6,88.6,17.9z"></path>
  <path d="M143.5,13.6c-0.3-1.2-0.9-2.4-1.6-3.4c-0.8-1-1.7-1.8-2.8-2.4c-1.2-0.6-2.5-0.9-3.8-0.9c-2.4,0-4.8,1-6.4,2.9c-0.8,0.9-1.4,1.9-1.8,3c-0.4,1.2-0.6,2.4-0.6,3.7c0,1.3,0.2,2.6,0.6,3.9c0.4,1.1,0.9,2.1,1.7,3c0.8,0.9,1.7,1.5,2.8,2c1.2,0.5,2.5,0.7,3.8,0.7c1,0,1.9-0.1,2.8-0.4c0.9-0.3,1.7-0.7,2.4-1.2c1.5-1.1,2.5-2.7,2.9-4.5h-3.8c-0.3,0.9-0.8,1.6-1.6,2.2c-0.8,0.5-1.8,0.8-2.8,0.8c-0.7,0-1.5-0.1-2.2-0.4c-0.6-0.3-1.1-0.7-1.5-1.2c-0.4-0.5-0.7-1.1-0.9-1.7c-0.2-0.6-0.3-1.3-0.3-2h13.3C143.9,16.2,143.8,14.9,143.5,13.6z M130.5,14.9c0-0.6,0.2-1.3,0.4-1.9c0.2-0.6,0.6-1.1,1-1.5c0.4-0.4,0.9-0.8,1.5-1c0.6-0.3,1.3-0.4,1.9-0.4c0.6,0,1.3,0.1,1.8,0.4c0.5,0.2,1,0.6,1.4,1c0.4,0.4,0.7,1,0.9,1.5c0.2,0.6,0.4,1.2,0.4,1.8L130.5,14.9L130.5,14.9z"></path>
  <path d="M160.2,17.9c-0.3-0.6-0.8-1.1-1.3-1.5c-0.6-0.4-1.2-0.7-1.9-0.9c-0.7-0.2-1.4-0.4-2.1-0.6l-2.2-0.4c-0.6-0.1-1.3-0.3-1.9-0.5c-0.5-0.2-0.9-0.4-1.3-0.8c-0.3-0.3-0.5-0.7-0.5-1.2c0-0.4,0.1-0.7,0.4-1c0.2-0.3,0.5-0.4,0.9-0.6c0.3-0.1,0.7-0.2,1.1-0.3c0.3,0,0.7-0.1,1-0.1c0.8,0,1.6,0.1,2.4,0.5c0.7,0.4,1.2,1.1,1.3,1.9h4.2c-0.1-0.9-0.4-1.8-0.9-2.6c-0.4-0.7-1-1.3-1.7-1.7c-0.7-0.5-1.5-0.8-2.3-1c-0.9-0.2-1.8-0.3-2.7-0.3c-0.9,0-1.7,0.1-2.6,0.2c-0.9,0.1-1.7,0.4-2.4,0.9c-0.7,0.4-1.3,0.9-1.8,1.6c-0.5,0.7-0.8,1.6-0.7,2.5c0,0.8,0.1,1.6,0.5,2.3c0.3,0.6,0.8,1.1,1.3,1.5c0.6,0.4,1.2,0.7,1.9,0.9c0.7,0.2,1.4,0.4,2.2,0.6l2.1,0.5c0.6,0.1,1.3,0.3,1.9,0.5c0.5,0.2,1,0.4,1.4,0.8c0.3,0.3,0.6,0.8,0.6,1.3c0,0.4-0.1,0.9-0.4,1.2c-0.3,0.3-0.6,0.6-1,0.7c-0.4,0.2-0.9,0.3-1.3,0.3c-0.4,0.1-0.9,0.1-1.3,0.1c-1,0-1.9-0.2-2.8-0.7c-0.8-0.5-1.3-1.3-1.3-2.2h-4c0,0.9,0.2,1.8,0.6,2.6c0.4,0.8,1,1.5,1.7,2c0.7,0.6,1.6,1,2.5,1.2c1,0.3,2.1,0.4,3.2,0.4c1,0,1.9-0.1,2.8-0.3c0.9-0.2,1.8-0.5,2.6-1c0.8-0.4,1.4-1.1,1.9-1.8c0.5-0.8,0.8-1.8,0.7-2.7C160.7,19.5,160.5,18.6,160.2,17.9z"></path>
  <path d="M15.4,10c-0.5-0.7-1.1-1.3-1.8-1.8c-0.8-0.5-1.6-0.8-2.5-0.9C10.2,7.1,9.2,7,8.3,7c-1,0-1.9,0.1-2.9,0.3C4.5,7.4,3.7,7.7,2.9,8.2c-0.7,0.4-1.4,1-1.8,1.8c-0.5,0.9-0.7,1.8-0.7,2.8c0,0.7,0.1,1.4,0.5,2c0.3,0.5,0.8,1,1.3,1.4C2.7,16.5,3.4,16.8,4,17c0.7,0.2,1.4,0.4,2.1,0.6c1.4,0.3,2.8,0.7,4.2,1.2c0.8,0.2,1.4,0.8,1.5,1.7c0,0.4-0.1,0.8-0.3,1.1c-0.2,0.3-0.5,0.5-0.8,0.7c-0.3,0.2-0.7,0.3-1,0.4c-0.4,0.1-0.7,0.1-1.1,0.1c-0.5,0-1-0.1-1.4-0.2c-0.4-0.1-0.8-0.3-1.2-0.5c-0.4-0.2-0.6-0.6-0.9-0.9c-0.2-0.3-0.3-0.7-0.3-1.1H0c0,1,0.3,1.9,0.8,2.8c0.5,0.8,1.1,1.5,1.9,1.9c0.8,0.5,1.7,0.8,2.7,1c2,0.4,4.1,0.4,6.1,0c0.9-0.2,1.8-0.5,2.6-1c1.7-1,2.7-2.9,2.6-4.9c0-0.7-0.1-1.5-0.5-2.1c-0.3-0.6-0.7-1-1.2-1.4c-0.6-0.4-1.2-0.7-1.8-0.9c-0.7-0.2-1.4-0.4-2.1-0.6L9,14.2c-0.6-0.1-1.2-0.3-1.9-0.5c-0.5-0.1-0.9-0.4-1.3-0.7c-0.3-0.3-0.5-0.7-0.5-1.1c0-0.3,0.1-0.6,0.3-0.9c0.2-0.2,0.4-0.4,0.7-0.5c0.3-0.1,0.6-0.2,0.9-0.2c0.3,0,0.6-0.1,0.9-0.1c0.8,0,1.6,0.2,2.3,0.5c0.6,0.4,1,1,1.1,1.8h4.7C16.2,11.7,15.9,10.8,15.4,10z"></path>
  <path d="M119,7.5c-1.8,0-4.4-0.1-6.7,2.2h-0.1V7.5h-3.7v18.1h4V15.2c0-3.3,2.9-4.2,6.6-4.2L119,7.5L119,7.5z"></path>
</svg>
